<?xml version="1.0" encoding="utf-8"?>
<!-- Generator: Adobe Illustrator 16.0.0, SVG Export Plug-In . SVG Version: 6.00 Build 0)  -->
<!DOCTYPE svg PUBLIC "-//W3C//DTD SVG 1.1//EN" "http://www.w3.org/Graphics/SVG/1.1/DTD/svg11.dtd">
<svg version="1.1" id="Layer_1" xmlns="http://www.w3.org/2000/svg" xmlns:xlink="http://www.w3.org/1999/xlink" x="0px" y="0px"
	 width="40px" height="40px" viewBox="0 0 40 40" enable-background="new 0 0 40 40" xml:space="preserve">
<path fill-rule="evenodd" clip-rule="evenodd" fill="#FFFFFF" d="M19.927,0.564C8.923,0.564,0,9.487,0,20.491
	C0,29.3,5.71,36.769,13.63,39.403c0.996,0.183,1.359-0.435,1.359-0.961c0-0.473-0.017-1.728-0.026-3.392
	c-5.544,1.204-6.713-2.67-6.713-2.67c-0.906-2.303-2.212-2.915-2.212-2.915c-1.81-1.236,0.137-1.211,0.137-1.211
	c2,0.141,3.052,2.054,3.052,2.054c1.778,3.043,4.665,2.165,5.8,1.657c0.182-1.29,0.696-2.168,1.266-2.666
	c-4.425-0.505-9.078-2.214-9.078-9.849c0-2.175,0.776-3.954,2.051-5.346C9.06,13.6,8.376,11.572,9.46,8.829
	c0,0,1.673-0.537,5.48,2.044c1.59-0.444,3.294-0.664,4.989-0.671c1.692,0.007,3.397,0.227,4.989,0.671
	c3.806-2.581,5.476-2.044,5.476-2.044c1.087,2.743,0.402,4.771,0.198,5.276c1.276,1.392,2.048,3.171,2.048,5.346
	c0,7.655-4.659,9.341-9.1,9.833c0.716,0.616,1.354,1.833,1.354,3.691c0,2.664-0.024,4.813-0.024,5.468
	c0,0.533,0.359,1.152,1.37,0.958c7.912-2.642,13.616-10.104,13.616-18.909C39.856,9.487,30.935,0.564,19.927,0.564z"/>
</svg>
