<?xml version="1.0" encoding="utf-8"?>
<!-- Generator: Adobe Illustrator 16.0.0, SVG Export Plug-In . SVG Version: 6.00 Build 0)  -->
<!DOCTYPE svg PUBLIC "-//W3C//DTD SVG 1.1//EN" "http://www.w3.org/Graphics/SVG/1.1/DTD/svg11.dtd">
<svg version="1.1" id="Layer_1" xmlns="http://www.w3.org/2000/svg" xmlns:xlink="http://www.w3.org/1999/xlink" x="0px" y="0px"
	 width="40px" height="40px" viewBox="0 0 40 40" enable-background="new 0 0 40 40" xml:space="preserve">
<g>
	<defs>
		<rect id="SVGID_1_" y="1.16" width="40" height="37.68"/>
	</defs>
	<clipPath id="SVGID_2_">
		<use xlink:href="#SVGID_1_"  overflow="visible"/>
	</clipPath>
	<g clip-path="url(#SVGID_2_)">
		<path fill="#FFFFFF" d="M43.979,31.303h-0.462v-0.886h0.584c0.304,0,0.647,0.047,0.647,0.422
			C44.748,31.269,44.402,31.303,43.979,31.303L43.979,31.303z M44.437,31.566c0.467-0.054,0.711-0.298,0.711-0.707
			c0-0.499-0.318-0.741-0.975-0.741h-1.052v2.624h0.396V31.6h0.49l0.009,0.014l0.761,1.129h0.422l-0.814-1.169L44.437,31.566
			L44.437,31.566z"/>
		<path fill="#FFFFFF" d="M44.022,33.59c-1.252,0-2.234-0.938-2.234-2.156c0-1.217,0.982-2.156,2.234-2.156
			c1.254,0,2.234,0.939,2.234,2.156C46.257,32.652,45.276,33.59,44.022,33.59L44.022,33.59z M44.022,28.952
			c-1.469,0-2.618,1.09-2.618,2.481c0,1.394,1.149,2.481,2.618,2.481c1.467,0,2.619-1.088,2.619-2.481
			C46.642,30.042,45.489,28.952,44.022,28.952L44.022,28.952z"/>
		<path fill="#FFFFFF" d="M33.851,33.268h-5.893v-8.744c0-2.085-0.037-4.768-3.062-4.768c-3.064,0-3.532,2.272-3.532,4.618v8.894
			h-5.885V15.287h5.647v2.458h0.081c0.785-1.414,2.708-2.904,5.573-2.904c5.966,0,7.069,3.723,7.069,8.566V33.268L33.851,33.268z
			 M8.836,12.83c-1.892,0-3.418-1.452-3.418-3.241c0-1.789,1.526-3.241,3.418-3.241c1.885,0,3.415,1.452,3.415,3.241
			C12.251,11.378,10.721,12.83,8.836,12.83L8.836,12.83z M11.783,33.268H5.886V15.287h5.897V33.268L11.783,33.268z M36.783,1.161
			H2.93C1.313,1.161,0,2.377,0,3.878v32.243c0,1.5,1.313,2.719,2.93,2.719h33.853c1.62,0,2.938-1.219,2.938-2.719V3.878
			C39.722,2.377,38.403,1.161,36.783,1.161L36.783,1.161z"/>
	</g>
</g>
</svg>
