<?xml version="1.0" encoding="utf-8"?>
<!-- Generator: Adobe Illustrator 16.0.0, SVG Export Plug-In . SVG Version: 6.00 Build 0)  -->
<!DOCTYPE svg PUBLIC "-//W3C//DTD SVG 1.1//EN" "http://www.w3.org/Graphics/SVG/1.1/DTD/svg11.dtd">
<svg version="1.1" id="Layer_1" xmlns="http://www.w3.org/2000/svg" xmlns:xlink="http://www.w3.org/1999/xlink" x="0px" y="0px"
	 width="40px" height="40px" viewBox="0 0 40 40" enable-background="new 0 0 40 40" xml:space="preserve">
<g>
	<path fill="#FFFFFF" d="M15.988,14.137c0.316-0.316,0.768-0.866,1.004-1.442c0.812-1.992,0.441-2.376,0.441-2.376
		c-0.532-1.151-1.676-2.689-3.185-4.199c-1.51-1.512-3.048-2.651-4.2-3.188c0,0-1.868-0.574-3.271,0.835
		c-0.007-0.005,0,0-0.013,0.013C6.762,3.783,6.76,3.783,6.757,3.783L6.76,3.786C6.565,3.98,6.386,4.175,6.22,4.367L15.988,14.137z"
		/>
	<path fill="#FFFFFF" d="M35.893,28.777c-0.533-1.149-1.676-2.688-3.188-4.2c-1.51-1.509-3.047-2.65-4.197-3.186
		c0,0-0.387-0.37-2.379,0.444c-0.574,0.233-1.121,0.685-1.441,1.001l9.771,9.769c0.193-0.166,0.387-0.345,0.584-0.537l0,0
		c0,0,0-0.002,0.002-0.008c0.016-0.013,0.018-0.007,0.016-0.013C36.465,30.643,35.893,28.777,35.893,28.777z"/>
	<path fill="#FFFFFF" d="M23.645,24.237c-0.309,0.415-0.795,0.587-1.379,0.587c-1.78,0-4.438-1.59-5.557-2.705
		c-1.483-1.484-3.802-5.689-2.121-6.939c0.093-0.057,0.189-0.12,0.288-0.182L5.367,5.49C3.933,7.663,3.992,9.398,3.992,9.398
		s-0.249,7.896,8.648,16.79c8.425,8.425,15.95,8.648,16.722,8.648c0.041,0,0.064,0,0.064,0s0.008,0,0.029,0
		c0.236,0,1.869-0.053,3.881-1.378l-9.51-9.507C23.764,24.048,23.703,24.145,23.645,24.237z"/>
</g>
</svg>
